solid OpenSCAD_Model
  facet normal 0.994522 0.104529 0
    outer loop
      vertex 41.5 0 2
      vertex 40.5931 8.62833 0
      vertex 40.5931 8.62833 2
    endloop
  endfacet
  facet normal 0.994522 0.104529 0
    outer loop
      vertex 40.5931 8.62833 0
      vertex 41.5 0 2
      vertex 41.5 0 0
    endloop
  endfacet
  facet normal -0.994522 0.104529 0
    outer loop
      vertex -41.5 0 0
      vertex -40.5931 8.62833 2
      vertex -40.5931 8.62833 0
    endloop
  endfacet
  facet normal -0.994522 0.104529 0
    outer loop
      vertex -40.5931 8.62833 2
      vertex -41.5 0 0
      vertex -41.5 0 2
    endloop
  endfacet
  facet normal 0 1 -0
    outer loop
      vertex -2 41.2727 0
      vertex -4.33793 41.2727 2
      vertex -2 41.2727 2
    endloop
  endfacet
  facet normal 0 1 0
    outer loop
      vertex -4.33793 41.2727 2
      vertex -2 41.2727 0
      vertex -4.33793 41.2727 0
    endloop
  endfacet
  facet normal 0 1 -0
    outer loop
      vertex 4.33793 41.2727 0
      vertex 2 41.2727 2
      vertex 4.33793 41.2727 2
    endloop
  endfacet
  facet normal 0 1 0
    outer loop
      vertex 2 41.2727 2
      vertex 4.33793 41.2727 0
      vertex 2 41.2727 0
    endloop
  endfacet
  facet normal 0 -1 0
    outer loop
      vertex -4.33793 -41.2727 0
      vertex 4.33793 -41.2727 2
      vertex -4.33793 -41.2727 2
    endloop
  endfacet
  facet normal 0 -1 -0
    outer loop
      vertex 4.33793 -41.2727 2
      vertex -4.33793 -41.2727 0
      vertex 4.33793 -41.2727 0
    endloop
  endfacet
  facet normal 0.587785 0.809017 -0
    outer loop
      vertex 27.7689 30.8405 0
      vertex 20.75 35.9401 2
      vertex 27.7689 30.8405 2
    endloop
  endfacet
  facet normal 0.587785 0.809017 0
    outer loop
      vertex 20.75 35.9401 2
      vertex 27.7689 30.8405 0
      vertex 20.75 35.9401 0
    endloop
  endfacet
  facet normal 0.406736 0.913546 -0
    outer loop
      vertex 20.75 35.9401 0
      vertex 12.8242 39.4688 2
      vertex 20.75 35.9401 2
    endloop
  endfacet
  facet normal 0.406736 0.913546 0
    outer loop
      vertex 12.8242 39.4688 2
      vertex 20.75 35.9401 0
      vertex 12.8242 39.4688 0
    endloop
  endfacet
  facet normal -0.587785 0.809017 0
    outer loop
      vertex -20.75 35.9401 0
      vertex -27.7689 30.8405 2
      vertex -20.75 35.9401 2
    endloop
  endfacet
  facet normal -0.587785 0.809017 0
    outer loop
      vertex -27.7689 30.8405 2
      vertex -20.75 35.9401 0
      vertex -27.7689 30.8405 0
    endloop
  endfacet
  facet normal -0.207912 0.978148 0
    outer loop
      vertex -4.33793 41.2727 0
      vertex -12.8242 39.4688 2
      vertex -4.33793 41.2727 2
    endloop
  endfacet
  facet normal -0.207912 0.978148 0
    outer loop
      vertex -12.8242 39.4688 2
      vertex -4.33793 41.2727 0
      vertex -12.8242 39.4688 0
    endloop
  endfacet
  facet normal 0.951057 -0.309017 0
    outer loop
      vertex 37.9121 -16.8796 2
      vertex 40.5931 -8.62833 0
      vertex 40.5931 -8.62833 2
    endloop
  endfacet
  facet normal 0.951057 -0.309017 0
    outer loop
      vertex 40.5931 -8.62833 0
      vertex 37.9121 -16.8796 2
      vertex 37.9121 -16.8796 0
    endloop
  endfacet
  facet normal 0.866025 0.5 0
    outer loop
      vertex 37.9121 16.8796 2
      vertex 33.5742 24.3931 0
      vertex 33.5742 24.3931 2
    endloop
  endfacet
  facet normal 0.866025 0.5 0
    outer loop
      vertex 33.5742 24.3931 0
      vertex 37.9121 16.8796 2
      vertex 37.9121 16.8796 0
    endloop
  endfacet
  facet normal 0.951057 0.309017 0
    outer loop
      vertex 40.5931 8.62833 2
      vertex 37.9121 16.8796 0
      vertex 37.9121 16.8796 2
    endloop
  endfacet
  facet normal 0.951057 0.309017 0
    outer loop
      vertex 37.9121 16.8796 0
      vertex 40.5931 8.62833 2
      vertex 40.5931 8.62833 0
    endloop
  endfacet
  facet normal 0.743145 0.66913 0
    outer loop
      vertex 33.5742 24.3931 2
      vertex 27.7689 30.8405 0
      vertex 27.7689 30.8405 2
    endloop
  endfacet
  facet normal 0.743145 0.66913 0
    outer loop
      vertex 27.7689 30.8405 0
      vertex 33.5742 24.3931 2
      vertex 33.5742 24.3931 0
    endloop
  endfacet
  facet normal 0.207912 0.978148 -0
    outer loop
      vertex 12.8242 39.4688 0
      vertex 4.33793 41.2727 2
      vertex 12.8242 39.4688 2
    endloop
  endfacet
  facet normal 0.207912 0.978148 0
    outer loop
      vertex 4.33793 41.2727 2
      vertex 12.8242 39.4688 0
      vertex 4.33793 41.2727 0
    endloop
  endfacet
  facet normal -0.866025 0.5 0
    outer loop
      vertex -37.9121 16.8796 0
      vertex -33.5742 24.3931 2
      vertex -33.5742 24.3931 0
    endloop
  endfacet
  facet normal -0.866025 0.5 0
    outer loop
      vertex -33.5742 24.3931 2
      vertex -37.9121 16.8796 0
      vertex -37.9121 16.8796 2
    endloop
  endfacet
  facet normal -0.743145 0.66913 0
    outer loop
      vertex -33.5742 24.3931 0
      vertex -27.7689 30.8405 2
      vertex -27.7689 30.8405 0
    endloop
  endfacet
  facet normal -0.743145 0.66913 0
    outer loop
      vertex -27.7689 30.8405 2
      vertex -33.5742 24.3931 0
      vertex -33.5742 24.3931 2
    endloop
  endfacet
  facet normal -0.951057 0.309017 0
    outer loop
      vertex -40.5931 8.62833 0
      vertex -37.9121 16.8796 2
      vertex -37.9121 16.8796 0
    endloop
  endfacet
  facet normal -0.951057 0.309017 0
    outer loop
      vertex -37.9121 16.8796 2
      vertex -40.5931 8.62833 0
      vertex -40.5931 8.62833 2
    endloop
  endfacet
  facet normal 0 0 1
    outer loop
      vertex -2 41.2727 2
      vertex -4.33793 41.2727 2
      vertex -2 33.5 2
    endloop
  endfacet
  facet normal 0 0 1
    outer loop
      vertex 2 33.5 2
      vertex 41.5 0 2
      vertex 40.5931 8.62833 2
    endloop
  endfacet
  facet normal 0 0 1
    outer loop
      vertex 2 33.5 2
      vertex 40.5931 8.62833 2
      vertex 37.9121 16.8796 2
    endloop
  endfacet
  facet normal 0 0 1
    outer loop
      vertex 41.5 0 2
      vertex 2 33.5 2
      vertex 40.5931 -8.62833 2
    endloop
  endfacet
  facet normal 0 0 1
    outer loop
      vertex 2 33.5 2
      vertex 37.9121 16.8796 2
      vertex 33.5742 24.3931 2
    endloop
  endfacet
  facet normal 0 0 1
    outer loop
      vertex 40.5931 -8.62833 2
      vertex 2 33.5 2
      vertex 37.9121 -16.8796 2
    endloop
  endfacet
  facet normal 0 0 1
    outer loop
      vertex 2 33.5 2
      vertex 33.5742 24.3931 2
      vertex 27.7689 30.8405 2
    endloop
  endfacet
  facet normal 0 0 1
    outer loop
      vertex 37.9121 -16.8796 2
      vertex 2 33.5 2
      vertex 33.5742 -24.3931 2
    endloop
  endfacet
  facet normal -0 0 1
    outer loop
      vertex 2 33.5 2
      vertex 27.7689 30.8405 2
      vertex 20.75 35.9401 2
    endloop
  endfacet
  facet normal 0 0 1
    outer loop
      vertex 33.5742 -24.3931 2
      vertex 2 33.5 2
      vertex 27.7689 -30.8405 2
    endloop
  endfacet
  facet normal 0 0 1
    outer loop
      vertex 2 33.5 2
      vertex 20.75 35.9401 2
      vertex 12.8242 39.4688 2
    endloop
  endfacet
  facet normal 0 0 1
    outer loop
      vertex 27.7689 -30.8405 2
      vertex 2 33.5 2
      vertex 20.75 -35.9401 2
    endloop
  endfacet
  facet normal 0 0 1
    outer loop
      vertex 2 33.5 2
      vertex 12.8242 39.4688 2
      vertex 4.33793 41.2727 2
    endloop
  endfacet
  facet normal 0 0 1
    outer loop
      vertex 20.75 -35.9401 2
      vertex 2 33.5 2
      vertex 12.8242 -39.4688 2
    endloop
  endfacet
  facet normal 0 0 1
    outer loop
      vertex 2 33.5 2
      vertex 4.33793 41.2727 2
      vertex 2 41.2727 2
    endloop
  endfacet
  facet normal 0 0 1
    outer loop
      vertex 12.8242 -39.4688 2
      vertex 2 33.5 2
      vertex 4.33793 -41.2727 2
    endloop
  endfacet
  facet normal -0 0 1
    outer loop
      vertex -2 33.5 2
      vertex 4.33793 -41.2727 2
      vertex 2 33.5 2
    endloop
  endfacet
  facet normal -0 0 1
    outer loop
      vertex -12.8242 39.4688 2
      vertex -2 33.5 2
      vertex -4.33793 41.2727 2
    endloop
  endfacet
  facet normal 0 0 1
    outer loop
      vertex -2 33.5 2
      vertex -4.33793 -41.2727 2
      vertex 4.33793 -41.2727 2
    endloop
  endfacet
  facet normal -0 0 1
    outer loop
      vertex -20.75 35.9401 2
      vertex -2 33.5 2
      vertex -12.8242 39.4688 2
    endloop
  endfacet
  facet normal 0 0 1
    outer loop
      vertex -2 33.5 2
      vertex -12.8242 -39.4688 2
      vertex -4.33793 -41.2727 2
    endloop
  endfacet
  facet normal 0 0 1
    outer loop
      vertex -27.7689 30.8405 2
      vertex -2 33.5 2
      vertex -20.75 35.9401 2
    endloop
  endfacet
  facet normal 0 0 1
    outer loop
      vertex -2 33.5 2
      vertex -20.75 -35.9401 2
      vertex -12.8242 -39.4688 2
    endloop
  endfacet
  facet normal 0 0 1
    outer loop
      vertex -33.5742 24.3931 2
      vertex -2 33.5 2
      vertex -27.7689 30.8405 2
    endloop
  endfacet
  facet normal 0 0 1
    outer loop
      vertex -2 33.5 2
      vertex -27.7689 -30.8405 2
      vertex -20.75 -35.9401 2
    endloop
  endfacet
  facet normal 0 0 1
    outer loop
      vertex -37.9121 16.8796 2
      vertex -2 33.5 2
      vertex -33.5742 24.3931 2
    endloop
  endfacet
  facet normal 0 0 1
    outer loop
      vertex -2 33.5 2
      vertex -33.5742 -24.3931 2
      vertex -27.7689 -30.8405 2
    endloop
  endfacet
  facet normal 0 0 1
    outer loop
      vertex -40.5931 8.62833 2
      vertex -2 33.5 2
      vertex -37.9121 16.8796 2
    endloop
  endfacet
  facet normal 0 0 1
    outer loop
      vertex -2 33.5 2
      vertex -37.9121 -16.8796 2
      vertex -33.5742 -24.3931 2
    endloop
  endfacet
  facet normal 0 0 1
    outer loop
      vertex -41.5 0 2
      vertex -2 33.5 2
      vertex -40.5931 8.62833 2
    endloop
  endfacet
  facet normal 0 0 1
    outer loop
      vertex -2 33.5 2
      vertex -40.5931 -8.62833 2
      vertex -37.9121 -16.8796 2
    endloop
  endfacet
  facet normal 0 0 1
    outer loop
      vertex -2 33.5 2
      vertex -41.5 0 2
      vertex -40.5931 -8.62833 2
    endloop
  endfacet
  facet normal -0.406736 0.913546 0
    outer loop
      vertex -12.8242 39.4688 0
      vertex -20.75 35.9401 2
      vertex -12.8242 39.4688 2
    endloop
  endfacet
  facet normal -0.406736 0.913546 0
    outer loop
      vertex -20.75 35.9401 2
      vertex -12.8242 39.4688 0
      vertex -20.75 35.9401 0
    endloop
  endfacet
  facet normal 0.994522 -0.104529 0
    outer loop
      vertex 40.5931 -8.62833 2
      vertex 41.5 0 0
      vertex 41.5 0 2
    endloop
  endfacet
  facet normal 0.994522 -0.104529 0
    outer loop
      vertex 41.5 0 0
      vertex 40.5931 -8.62833 2
      vertex 40.5931 -8.62833 0
    endloop
  endfacet
  facet normal 0 0 1
    outer loop
      vertex 41.5 0 0
      vertex 42.5 0 0
      vertex 41.5713 8.83625 0
    endloop
  endfacet
  facet normal 0 0 1
    outer loop
      vertex 42.5 0 0
      vertex 41.5 0 0
      vertex 41.5713 -8.83625 0
    endloop
  endfacet
  facet normal 0 0 1
    outer loop
      vertex 41.5713 8.83625 0
      vertex 40.5931 8.62833 0
      vertex 41.5 0 0
    endloop
  endfacet
  facet normal 0 0 1
    outer loop
      vertex 38.8257 17.2863 0
      vertex 40.5931 8.62833 0
      vertex 41.5713 8.83625 0
    endloop
  endfacet
  facet normal 0 0 1
    outer loop
      vertex 38.8257 17.2863 0
      vertex 37.9121 16.8796 0
      vertex 40.5931 8.62833 0
    endloop
  endfacet
  facet normal 0 0 1
    outer loop
      vertex 34.3832 24.9809 0
      vertex 37.9121 16.8796 0
      vertex 38.8257 17.2863 0
    endloop
  endfacet
  facet normal 0 0 1
    outer loop
      vertex 34.3832 24.9809 0
      vertex 33.5742 24.3931 0
      vertex 37.9121 16.8796 0
    endloop
  endfacet
  facet normal 0 0 1
    outer loop
      vertex 28.438 31.5837 0
      vertex 33.5742 24.3931 0
      vertex 34.3832 24.9809 0
    endloop
  endfacet
  facet normal 0 0 1
    outer loop
      vertex 28.438 31.5837 0
      vertex 27.7689 30.8405 0
      vertex 33.5742 24.3931 0
    endloop
  endfacet
  facet normal 0 0 1
    outer loop
      vertex 21.25 36.8061 0
      vertex 27.7689 30.8405 0
      vertex 28.438 31.5837 0
    endloop
  endfacet
  facet normal 0 0 1
    outer loop
      vertex 21.25 36.8061 0
      vertex 20.75 35.9401 0
      vertex 27.7689 30.8405 0
    endloop
  endfacet
  facet normal 0 0 1
    outer loop
      vertex 13.1332 40.4199 0
      vertex 20.75 35.9401 0
      vertex 21.25 36.8061 0
    endloop
  endfacet
  facet normal 0 0 1
    outer loop
      vertex 13.1332 40.4199 0
      vertex 12.8242 39.4688 0
      vertex 20.75 35.9401 0
    endloop
  endfacet
  facet normal 0 0 1
    outer loop
      vertex 4.44246 42.2672 0
      vertex 12.8242 39.4688 0
      vertex 13.1332 40.4199 0
    endloop
  endfacet
  facet normal 0 0 1
    outer loop
      vertex 4.44246 42.2672 0
      vertex 4.33793 41.2727 0
      vertex 12.8242 39.4688 0
    endloop
  endfacet
  facet normal 0 0 1
    outer loop
      vertex 4.44246 42.2672 0
      vertex 2 41.2727 0
      vertex 4.33793 41.2727 0
    endloop
  endfacet
  facet normal 0 0 1
    outer loop
      vertex 2 41.2727 0
      vertex -2 41.2727 0
      vertex 2 33.5 0
    endloop
  endfacet
  facet normal 0 0 1
    outer loop
      vertex 4.44246 42.2672 0
      vertex -2 41.2727 0
      vertex 2 41.2727 0
    endloop
  endfacet
  facet normal -0 0 1
    outer loop
      vertex -4.44246 42.2672 0
      vertex -2 41.2727 0
      vertex 4.44246 42.2672 0
    endloop
  endfacet
  facet normal 0 0 1
    outer loop
      vertex -2 41.2727 0
      vertex -4.44246 42.2672 0
      vertex -4.33793 41.2727 0
    endloop
  endfacet
  facet normal 0 0 1
    outer loop
      vertex -4.44246 42.2672 0
      vertex -12.8242 39.4688 0
      vertex -4.33793 41.2727 0
    endloop
  endfacet
  facet normal -0 0 1
    outer loop
      vertex -13.1332 40.4199 0
      vertex -12.8242 39.4688 0
      vertex -4.44246 42.2672 0
    endloop
  endfacet
  facet normal 0 0 1
    outer loop
      vertex -13.1332 40.4199 0
      vertex -20.75 35.9401 0
      vertex -12.8242 39.4688 0
    endloop
  endfacet
  facet normal -0 0 1
    outer loop
      vertex -21.25 36.8061 0
      vertex -20.75 35.9401 0
      vertex -13.1332 40.4199 0
    endloop
  endfacet
  facet normal 0 0 1
    outer loop
      vertex -21.25 36.8061 0
      vertex -27.7689 30.8405 0
      vertex -20.75 35.9401 0
    endloop
  endfacet
  facet normal -0 0 1
    outer loop
      vertex -28.438 31.5837 0
      vertex -27.7689 30.8405 0
      vertex -21.25 36.8061 0
    endloop
  endfacet
  facet normal 0 0 1
    outer loop
      vertex -28.438 31.5837 0
      vertex -33.5742 24.3931 0
      vertex -27.7689 30.8405 0
    endloop
  endfacet
  facet normal -0 0 1
    outer loop
      vertex -34.3832 24.9809 0
      vertex -33.5742 24.3931 0
      vertex -28.438 31.5837 0
    endloop
  endfacet
  facet normal 0 0 1
    outer loop
      vertex -34.3832 24.9809 0
      vertex -37.9121 16.8796 0
      vertex -33.5742 24.3931 0
    endloop
  endfacet
  facet normal -0 0 1
    outer loop
      vertex -38.8257 17.2863 0
      vertex -37.9121 16.8796 0
      vertex -34.3832 24.9809 0
    endloop
  endfacet
  facet normal 0 0 1
    outer loop
      vertex -38.8257 17.2863 0
      vertex -40.5931 8.62833 0
      vertex -37.9121 16.8796 0
    endloop
  endfacet
  facet normal 0 0 1
    outer loop
      vertex -40.5931 8.62833 0
      vertex -41.5713 8.83625 0
      vertex -41.5 0 0
    endloop
  endfacet
  facet normal -0 0 1
    outer loop
      vertex -41.5713 8.83625 0
      vertex -40.5931 8.62833 0
      vertex -38.8257 17.2863 0
    endloop
  endfacet
  facet normal -0 0 1
    outer loop
      vertex 40.5931 -8.62833 0
      vertex 41.5713 -8.83625 0
      vertex 41.5 0 0
    endloop
  endfacet
  facet normal 0 0 1
    outer loop
      vertex 40.5931 -8.62833 0
      vertex 38.8257 -17.2863 0
      vertex 41.5713 -8.83625 0
    endloop
  endfacet
  facet normal -0 0 1
    outer loop
      vertex 37.9121 -16.8796 0
      vertex 38.8257 -17.2863 0
      vertex 40.5931 -8.62833 0
    endloop
  endfacet
  facet normal 0 0 1
    outer loop
      vertex 37.9121 -16.8796 0
      vertex 34.3832 -24.9809 0
      vertex 38.8257 -17.2863 0
    endloop
  endfacet
  facet normal -0 0 1
    outer loop
      vertex 33.5742 -24.3931 0
      vertex 34.3832 -24.9809 0
      vertex 37.9121 -16.8796 0
    endloop
  endfacet
  facet normal 0 0 1
    outer loop
      vertex 33.5742 -24.3931 0
      vertex 28.438 -31.5837 0
      vertex 34.3832 -24.9809 0
    endloop
  endfacet
  facet normal -0 0 1
    outer loop
      vertex 27.7689 -30.8405 0
      vertex 28.438 -31.5837 0
      vertex 33.5742 -24.3931 0
    endloop
  endfacet
  facet normal 0 0 1
    outer loop
      vertex 27.7689 -30.8405 0
      vertex 21.25 -36.8061 0
      vertex 28.438 -31.5837 0
    endloop
  endfacet
  facet normal -0 0 1
    outer loop
      vertex 20.75 -35.9401 0
      vertex 21.25 -36.8061 0
      vertex 27.7689 -30.8405 0
    endloop
  endfacet
  facet normal 0 0 1
    outer loop
      vertex 20.75 -35.9401 0
      vertex 13.1332 -40.4199 0
      vertex 21.25 -36.8061 0
    endloop
  endfacet
  facet normal -0 0 1
    outer loop
      vertex 12.8242 -39.4688 0
      vertex 13.1332 -40.4199 0
      vertex 20.75 -35.9401 0
    endloop
  endfacet
  facet normal 0 0 1
    outer loop
      vertex 12.8242 -39.4688 0
      vertex 4.44246 -42.2672 0
      vertex 13.1332 -40.4199 0
    endloop
  endfacet
  facet normal -0 0 1
    outer loop
      vertex 4.33793 -41.2727 0
      vertex 4.44246 -42.2672 0
      vertex 12.8242 -39.4688 0
    endloop
  endfacet
  facet normal -0 0 1
    outer loop
      vertex -4.33793 -41.2727 0
      vertex 4.44246 -42.2672 0
      vertex 4.33793 -41.2727 0
    endloop
  endfacet
  facet normal 0 0 1
    outer loop
      vertex -4.33793 -41.2727 0
      vertex -4.44246 -42.2672 0
      vertex 4.44246 -42.2672 0
    endloop
  endfacet
  facet normal 0 0 1
    outer loop
      vertex -12.8242 -39.4688 0
      vertex -4.44246 -42.2672 0
      vertex -4.33793 -41.2727 0
    endloop
  endfacet
  facet normal 0 0 1
    outer loop
      vertex -12.8242 -39.4688 0
      vertex -13.1332 -40.4199 0
      vertex -4.44246 -42.2672 0
    endloop
  endfacet
  facet normal 0 0 1
    outer loop
      vertex -20.75 -35.9401 0
      vertex -13.1332 -40.4199 0
      vertex -12.8242 -39.4688 0
    endloop
  endfacet
  facet normal 0 0 1
    outer loop
      vertex -20.75 -35.9401 0
      vertex -21.25 -36.8061 0
      vertex -13.1332 -40.4199 0
    endloop
  endfacet
  facet normal 0 0 1
    outer loop
      vertex -27.7689 -30.8405 0
      vertex -21.25 -36.8061 0
      vertex -20.75 -35.9401 0
    endloop
  endfacet
  facet normal 0 0 1
    outer loop
      vertex -27.7689 -30.8405 0
      vertex -28.438 -31.5837 0
      vertex -21.25 -36.8061 0
    endloop
  endfacet
  facet normal 0 0 1
    outer loop
      vertex -33.5742 -24.3931 0
      vertex -28.438 -31.5837 0
      vertex -27.7689 -30.8405 0
    endloop
  endfacet
  facet normal 0 0 1
    outer loop
      vertex -33.5742 -24.3931 0
      vertex -34.3832 -24.9809 0
      vertex -28.438 -31.5837 0
    endloop
  endfacet
  facet normal 0 0 1
    outer loop
      vertex -37.9121 -16.8796 0
      vertex -34.3832 -24.9809 0
      vertex -33.5742 -24.3931 0
    endloop
  endfacet
  facet normal 0 0 1
    outer loop
      vertex -37.9121 -16.8796 0
      vertex -38.8257 -17.2863 0
      vertex -34.3832 -24.9809 0
    endloop
  endfacet
  facet normal 0 0 1
    outer loop
      vertex -40.5931 -8.62833 0
      vertex -38.8257 -17.2863 0
      vertex -37.9121 -16.8796 0
    endloop
  endfacet
  facet normal 0 0 1
    outer loop
      vertex -40.5931 -8.62833 0
      vertex -41.5713 -8.83625 0
      vertex -38.8257 -17.2863 0
    endloop
  endfacet
  facet normal 0 0 1
    outer loop
      vertex -41.5 0 0
      vertex -41.5713 -8.83625 0
      vertex -40.5931 -8.62833 0
    endloop
  endfacet
  facet normal 0 0 1
    outer loop
      vertex -42.5 0 0
      vertex -41.5 0 0
      vertex -41.5713 8.83625 0
    endloop
  endfacet
  facet normal 0 0 1
    outer loop
      vertex -41.5 0 0
      vertex -42.5 0 0
      vertex -41.5713 -8.83625 0
    endloop
  endfacet
  facet normal 0 0 1
    outer loop
      vertex 2 33.5 0
      vertex -2 41.2727 0
      vertex -2 33.5 0
    endloop
  endfacet
  facet normal 0.207912 -0.978148 0
    outer loop
      vertex 4.33793 -41.2727 0
      vertex 12.8242 -39.4688 2
      vertex 4.33793 -41.2727 2
    endloop
  endfacet
  facet normal 0.207912 -0.978148 0
    outer loop
      vertex 12.8242 -39.4688 2
      vertex 4.33793 -41.2727 0
      vertex 12.8242 -39.4688 0
    endloop
  endfacet
  facet normal 0.866025 -0.5 0
    outer loop
      vertex 33.5742 -24.3931 2
      vertex 37.9121 -16.8796 0
      vertex 37.9121 -16.8796 2
    endloop
  endfacet
  facet normal 0.866025 -0.5 0
    outer loop
      vertex 37.9121 -16.8796 0
      vertex 33.5742 -24.3931 2
      vertex 33.5742 -24.3931 0
    endloop
  endfacet
  facet normal -0.866025 -0.5 0
    outer loop
      vertex -33.5742 -24.3931 0
      vertex -37.9121 -16.8796 2
      vertex -37.9121 -16.8796 0
    endloop
  endfacet
  facet normal -0.866025 -0.5 0
    outer loop
      vertex -37.9121 -16.8796 2
      vertex -33.5742 -24.3931 0
      vertex -33.5742 -24.3931 2
    endloop
  endfacet
  facet normal -0.743145 -0.66913 0
    outer loop
      vertex -27.7689 -30.8405 0
      vertex -33.5742 -24.3931 2
      vertex -33.5742 -24.3931 0
    endloop
  endfacet
  facet normal -0.743145 -0.66913 0
    outer loop
      vertex -33.5742 -24.3931 2
      vertex -27.7689 -30.8405 0
      vertex -27.7689 -30.8405 2
    endloop
  endfacet
  facet normal 0.587785 -0.809017 0
    outer loop
      vertex 20.75 -35.9401 0
      vertex 27.7689 -30.8405 2
      vertex 20.75 -35.9401 2
    endloop
  endfacet
  facet normal 0.587785 -0.809017 0
    outer loop
      vertex 27.7689 -30.8405 2
      vertex 20.75 -35.9401 0
      vertex 27.7689 -30.8405 0
    endloop
  endfacet
  facet normal 0.406736 -0.913546 0
    outer loop
      vertex 12.8242 -39.4688 0
      vertex 20.75 -35.9401 2
      vertex 12.8242 -39.4688 2
    endloop
  endfacet
  facet normal 0.406736 -0.913546 0
    outer loop
      vertex 20.75 -35.9401 2
      vertex 12.8242 -39.4688 0
      vertex 20.75 -35.9401 0
    endloop
  endfacet
  facet normal -0.207912 -0.978148 0
    outer loop
      vertex -12.8242 -39.4688 0
      vertex -4.33793 -41.2727 2
      vertex -12.8242 -39.4688 2
    endloop
  endfacet
  facet normal -0.207912 -0.978148 -0
    outer loop
      vertex -4.33793 -41.2727 2
      vertex -12.8242 -39.4688 0
      vertex -4.33793 -41.2727 0
    endloop
  endfacet
  facet normal -0.951057 -0.309017 0
    outer loop
      vertex -37.9121 -16.8796 0
      vertex -40.5931 -8.62833 2
      vertex -40.5931 -8.62833 0
    endloop
  endfacet
  facet normal -0.951057 -0.309017 0
    outer loop
      vertex -40.5931 -8.62833 2
      vertex -37.9121 -16.8796 0
      vertex -37.9121 -16.8796 2
    endloop
  endfacet
  facet normal -0.994522 -0.104529 0
    outer loop
      vertex -40.5931 -8.62833 0
      vertex -41.5 0 2
      vertex -41.5 0 0
    endloop
  endfacet
  facet normal -0.994522 -0.104529 0
    outer loop
      vertex -41.5 0 2
      vertex -40.5931 -8.62833 0
      vertex -40.5931 -8.62833 2
    endloop
  endfacet
  facet normal 0.743145 -0.66913 0
    outer loop
      vertex 27.7689 -30.8405 2
      vertex 33.5742 -24.3931 0
      vertex 33.5742 -24.3931 2
    endloop
  endfacet
  facet normal 0.743145 -0.66913 0
    outer loop
      vertex 33.5742 -24.3931 0
      vertex 27.7689 -30.8405 2
      vertex 27.7689 -30.8405 0
    endloop
  endfacet
  facet normal -0.406736 -0.913546 0
    outer loop
      vertex -20.75 -35.9401 0
      vertex -12.8242 -39.4688 2
      vertex -20.75 -35.9401 2
    endloop
  endfacet
  facet normal -0.406736 -0.913546 -0
    outer loop
      vertex -12.8242 -39.4688 2
      vertex -20.75 -35.9401 0
      vertex -12.8242 -39.4688 0
    endloop
  endfacet
  facet normal -0.587785 -0.809017 0
    outer loop
      vertex -27.7689 -30.8405 0
      vertex -20.75 -35.9401 2
      vertex -27.7689 -30.8405 2
    endloop
  endfacet
  facet normal -0.587785 -0.809017 -0
    outer loop
      vertex -20.75 -35.9401 2
      vertex -27.7689 -30.8405 0
      vertex -20.75 -35.9401 0
    endloop
  endfacet
  facet normal 1 -0 0
    outer loop
      vertex -2 33.5 2
      vertex -2 41.2727 0
      vertex -2 41.2727 2
    endloop
  endfacet
  facet normal 1 0 0
    outer loop
      vertex -2 41.2727 0
      vertex -2 33.5 2
      vertex -2 33.5 0
    endloop
  endfacet
  facet normal -1 0 0
    outer loop
      vertex 2 33.5 0
      vertex 2 41.2727 2
      vertex 2 41.2727 0
    endloop
  endfacet
  facet normal -1 -0 0
    outer loop
      vertex 2 41.2727 2
      vertex 2 33.5 0
      vertex 2 33.5 2
    endloop
  endfacet
  facet normal 0 1 -0
    outer loop
      vertex 2 33.5 0
      vertex -2 33.5 2
      vertex 2 33.5 2
    endloop
  endfacet
  facet normal 0 1 0
    outer loop
      vertex -2 33.5 2
      vertex 2 33.5 0
      vertex -2 33.5 0
    endloop
  endfacet
  facet normal -0.669362 -0.724309 0.165318
    outer loop
      vertex -43.3478 -0.598388 19.4772
      vertex -43.3478 -0.746177 18.8297
      vertex -42.2654 -1.80143 18.5888
    endloop
  endfacet
  facet normal -0.669362 0.72431 0.16532
    outer loop
      vertex -42.2654 1.80143 18.5888
      vertex -43.3478 0.598388 19.4772
      vertex -42.2654 1.44464 20.1521
    endloop
  endfacet
  facet normal -0.669361 0.580851 -0.463214
    outer loop
      vertex -42.2654 1.80143 18.5888
      vertex -43.3478 0.33208 18.3104
      vertex -43.3478 0.746177 18.8297
    endloop
  endfacet
  facet normal -0.669361 0.322348 0.669363
    outer loop
      vertex -42.2654 1.44464 20.1521
      vertex -43.3478 0.598388 19.4772
      vertex -43.3478 0 19.7654
    endloop
  endfacet
  facet normal 0 -0.974928 0.222522
    outer loop
      vertex -42.2654 -1.80143 18.5888
      vertex -41.5 -1.44464 20.1521
      vertex -42.2654 -1.44464 20.1521
    endloop
  endfacet
  facet normal 0 -0.974928 0.222522
    outer loop
      vertex -41.5 -1.44464 20.1521
      vertex -42.2654 -1.80143 18.5888
      vertex -41.5 -1.80143 18.5888
    endloop
  endfacet
  facet normal -0.669362 0.322349 0.669362
    outer loop
      vertex -42.2654 1.44464 20.1521
      vertex -43.3478 0 19.7654
      vertex -42.2654 0 20.8478
    endloop
  endfacet
  facet normal 0 0.781831 -0.62349
    outer loop
      vertex -41.5 0.801712 17.3352
      vertex -42.2654 1.80143 18.5888
      vertex -41.5 1.80143 18.5888
    endloop
  endfacet
  facet normal 0 0.781831 -0.62349
    outer loop
      vertex -42.2654 1.80143 18.5888
      vertex -41.5 0.801712 17.3352
      vertex -42.2654 0.801712 17.3352
    endloop
  endfacet
  facet normal -0.669362 -0.580851 -0.463214
    outer loop
      vertex -42.2654 -1.80143 18.5888
      vertex -43.3478 -0.33208 18.3104
      vertex -42.2654 -0.801712 17.3352
    endloop
  endfacet
  facet normal -0.669362 -0.322349 0.669362
    outer loop
      vertex -42.2654 0 20.8478
      vertex -43.3478 0 19.7654
      vertex -42.2654 -1.44464 20.1521
    endloop
  endfacet
  facet normal -0.669362 0.724309 0.165318
    outer loop
      vertex -42.2654 1.80143 18.5888
      vertex -43.3478 0.746177 18.8297
      vertex -43.3478 0.598388 19.4772
    endloop
  endfacet
  facet normal -0.669362 -0.72431 0.16532
    outer loop
      vertex -42.2654 -1.44464 20.1521
      vertex -43.3478 -0.598388 19.4772
      vertex -42.2654 -1.80143 18.5888
    endloop
  endfacet
  facet normal -0.669361 -0.322348 0.669363
    outer loop
      vertex -43.3478 0 19.7654
      vertex -43.3478 -0.598388 19.4772
      vertex -42.2654 -1.44464 20.1521
    endloop
  endfacet
  facet normal 0 -0.433885 0.900968
    outer loop
      vertex -42.2654 0 20.8478
      vertex -41.5 -1.44464 20.1521
      vertex -41.5 0 20.8478
    endloop
  endfacet
  facet normal 0 -0.433885 0.900968
    outer loop
      vertex -41.5 -1.44464 20.1521
      vertex -42.2654 0 20.8478
      vertex -42.2654 -1.44464 20.1521
    endloop
  endfacet
  facet normal 0 0.974928 0.222522
    outer loop
      vertex -41.5 1.80143 18.5888
      vertex -42.2654 1.44464 20.1521
      vertex -41.5 1.44464 20.1521
    endloop
  endfacet
  facet normal 0 0.974928 0.222522
    outer loop
      vertex -42.2654 1.44464 20.1521
      vertex -41.5 1.80143 18.5888
      vertex -42.2654 1.80143 18.5888
    endloop
  endfacet
  facet normal -0.669361 0 -0.742937
    outer loop
      vertex -43.3478 -0.33208 18.3104
      vertex -42.2654 0.801712 17.3352
      vertex -42.2654 -0.801712 17.3352
    endloop
  endfacet
  facet normal -0.669361 0 -0.742937
    outer loop
      vertex -42.2654 0.801712 17.3352
      vertex -43.3478 -0.33208 18.3104
      vertex -43.3478 0.33208 18.3104
    endloop
  endfacet
  facet normal -0.669362 0.580851 -0.463214
    outer loop
      vertex -42.2654 0.801712 17.3352
      vertex -43.3478 0.33208 18.3104
      vertex -42.2654 1.80143 18.5888
    endloop
  endfacet
  facet normal 0 0 -1
    outer loop
      vertex -42.2654 -0.801712 17.3352
      vertex -41.5 0.801712 17.3352
      vertex -41.5 -0.801712 17.3352
    endloop
  endfacet
  facet normal -0 0 -1
    outer loop
      vertex -41.5 0.801712 17.3352
      vertex -42.2654 -0.801712 17.3352
      vertex -42.2654 0.801712 17.3352
    endloop
  endfacet
  facet normal -0.669361 -0.580851 -0.463214
    outer loop
      vertex -43.3478 -0.746177 18.8297
      vertex -43.3478 -0.33208 18.3104
      vertex -42.2654 -1.80143 18.5888
    endloop
  endfacet
  facet normal -0 0.433885 0.900968
    outer loop
      vertex -42.2654 1.44464 20.1521
      vertex -41.5 0 20.8478
      vertex -41.5 1.44464 20.1521
    endloop
  endfacet
  facet normal 0 0.433885 0.900968
    outer loop
      vertex -41.5 0 20.8478
      vertex -42.2654 1.44464 20.1521
      vertex -42.2654 0 20.8478
    endloop
  endfacet
  facet normal -1 0 0
    outer loop
      vertex -43.3478 0.33208 18.3104
      vertex -43.3478 0.598388 19.4772
      vertex -43.3478 0.746177 18.8297
    endloop
  endfacet
  facet normal -1 0 0
    outer loop
      vertex -43.3478 0.33208 18.3104
      vertex -43.3478 0 19.7654
      vertex -43.3478 0.598388 19.4772
    endloop
  endfacet
  facet normal -1 0 0
    outer loop
      vertex -43.3478 -0.33208 18.3104
      vertex -43.3478 0 19.7654
      vertex -43.3478 0.33208 18.3104
    endloop
  endfacet
  facet normal -1 0 0
    outer loop
      vertex -43.3478 -0.33208 18.3104
      vertex -43.3478 -0.598388 19.4772
      vertex -43.3478 0 19.7654
    endloop
  endfacet
  facet normal -1 0 -0
    outer loop
      vertex -43.3478 -0.598388 19.4772
      vertex -43.3478 -0.33208 18.3104
      vertex -43.3478 -0.746177 18.8297
    endloop
  endfacet
  facet normal 0 -0.781831 -0.62349
    outer loop
      vertex -42.2654 -0.801712 17.3352
      vertex -41.5 -1.80143 18.5888
      vertex -42.2654 -1.80143 18.5888
    endloop
  endfacet
  facet normal 0 -0.781831 -0.62349
    outer loop
      vertex -41.5 -1.80143 18.5888
      vertex -42.2654 -0.801712 17.3352
      vertex -41.5 -0.801712 17.3352
    endloop
  endfacet
  facet normal -1 0 0
    outer loop
      vertex -41.5 2.5 2
      vertex -41.5 1.80143 18.5888
      vertex -41.5 2.5 21
    endloop
  endfacet
  facet normal -1 0 0
    outer loop
      vertex -41.5 2.5 2
      vertex -41.5 0.801712 17.3352
      vertex -41.5 1.80143 18.5888
    endloop
  endfacet
  facet normal -1 0 0
    outer loop
      vertex -41.5 2.5 2
      vertex -41.5 -0.801712 17.3352
      vertex -41.5 0.801712 17.3352
    endloop
  endfacet
  facet normal -1 0 0
    outer loop
      vertex -41.5 -2.5 2
      vertex -41.5 -0.801712 17.3352
      vertex -41.5 2.5 2
    endloop
  endfacet
  facet normal -1 -0 0
    outer loop
      vertex -41.5 -0.801712 17.3352
      vertex -41.5 -2.5 2
      vertex -41.5 -1.80143 18.5888
    endloop
  endfacet
  facet normal -1 0 0
    outer loop
      vertex -41.5 1.44464 20.1521
      vertex -41.5 2.5 21
      vertex -41.5 1.80143 18.5888
    endloop
  endfacet
  facet normal -1 0 0
    outer loop
      vertex -41.5 0 20.8478
      vertex -41.5 2.5 21
      vertex -41.5 1.44464 20.1521
    endloop
  endfacet
  facet normal -1 0 0
    outer loop
      vertex -41.5 0 20.8478
      vertex -41.5 -2.5 21
      vertex -41.5 2.5 21
    endloop
  endfacet
  facet normal -1 0 0
    outer loop
      vertex -41.5 -1.44464 20.1521
      vertex -41.5 -2.5 21
      vertex -41.5 0 20.8478
    endloop
  endfacet
  facet normal -1 0 0
    outer loop
      vertex -41.5 -1.80143 18.5888
      vertex -41.5 -2.5 21
      vertex -41.5 -1.44464 20.1521
    endloop
  endfacet
  facet normal -1 0 0
    outer loop
      vertex -41.5 -2.5 21
      vertex -41.5 -1.80143 18.5888
      vertex -41.5 -2.5 2
    endloop
  endfacet
  facet normal 0 0 -1
    outer loop
      vertex -41.5 -2.5 2
      vertex -39.5 2.5 2
      vertex -39.5 -2.5 2
    endloop
  endfacet
  facet normal -0 0 -1
    outer loop
      vertex -39.5 2.5 2
      vertex -41.5 -2.5 2
      vertex -41.5 2.5 2
    endloop
  endfacet
  facet normal -0 0 1
    outer loop
      vertex -41.5 2.5 21
      vertex -39.5 -2.5 21
      vertex -39.5 2.5 21
    endloop
  endfacet
  facet normal 0 0 1
    outer loop
      vertex -39.5 -2.5 21
      vertex -41.5 2.5 21
      vertex -41.5 -2.5 21
    endloop
  endfacet
  facet normal 1 0 0
    outer loop
      vertex -39.5 2.5 21
      vertex -39.5 -2.5 4
      vertex -39.5 2.5 4
    endloop
  endfacet
  facet normal 1 0 0
    outer loop
      vertex -39.5 -2.5 2
      vertex -39.5 -2.5 4
      vertex -39.5 -2.5 21
    endloop
  endfacet
  facet normal 1 -0 0
    outer loop
      vertex -39.5 -2.5 21
      vertex -39.5 -2.5 4
      vertex -39.5 2.5 21
    endloop
  endfacet
  facet normal 1 -0 0
    outer loop
      vertex -39.5 -2.5 2.00001
      vertex -39.5 2.5 2
      vertex -39.5 2.5 2.00002
    endloop
  endfacet
  facet normal 1 0 0
    outer loop
      vertex -39.5 -2.5 2.00001
      vertex -39.5 -2.5 2
      vertex -39.5 2.5 2
    endloop
  endfacet
  facet normal 1 0 0
    outer loop
      vertex -39.5 -2.5 4
      vertex -39.5 -2.5 2
      vertex -39.5 -2.5 2.00001
    endloop
  endfacet
  facet normal 0 -1 0
    outer loop
      vertex -41.5 -2.5 2
      vertex -39.5 -2.5 21
      vertex -41.5 -2.5 21
    endloop
  endfacet
  facet normal 0 -1 -0
    outer loop
      vertex -39.5 -2.5 21
      vertex -41.5 -2.5 2
      vertex -39.5 -2.5 2
    endloop
  endfacet
  facet normal 0 1 -0
    outer loop
      vertex -37.5 2.5 2
      vertex -38.3678 2.5 2.19807
      vertex -37.5 2.5 2.19807
    endloop
  endfacet
  facet normal 0 1 0
    outer loop
      vertex -38.3678 2.5 2.19807
      vertex -37.5 2.5 2
      vertex -39.5 2.5 2.00002
    endloop
  endfacet
  facet normal 0 1 0
    outer loop
      vertex -39.3483 2.5 4
      vertex -39.4498 2.5 3.55496
      vertex -39.5 2.5 4
    endloop
  endfacet
  facet normal 0 1 -0
    outer loop
      vertex -39.5 2.5 4
      vertex -41.5 2.5 21
      vertex -39.5 2.5 21
    endloop
  endfacet
  facet normal 0 1 0
    outer loop
      vertex -41.5 2.5 2
      vertex -39.5 2.5 4
      vertex -39.4498 2.5 3.55496
    endloop
  endfacet
  facet normal 0 1 0
    outer loop
      vertex -39.5 2.5 2.00002
      vertex -39.4498 2.5 3.55496
      vertex -38.3678 2.5 2.19807
    endloop
  endfacet
  facet normal 0 1 0
    outer loop
      vertex -41.5 2.5 2
      vertex -39.4498 2.5 3.55496
      vertex -39.5 2.5 2.00002
    endloop
  endfacet
  facet normal 0 1 0
    outer loop
      vertex -41.5 2.5 2
      vertex -39.5 2.5 2.00002
      vertex -39.5 2.5 2
    endloop
  endfacet
  facet normal 0 1 0
    outer loop
      vertex -39.5 2.5 4
      vertex -41.5 2.5 2
      vertex -41.5 2.5 21
    endloop
  endfacet
  facet normal 0 -1 0
    outer loop
      vertex -39.5 -2.5 4
      vertex -39.4498 -2.5 3.55496
      vertex -39.3483 -2.5 4
    endloop
  endfacet
  facet normal 0 -1 -0
    outer loop
      vertex -39.4498 -2.5 3.55496
      vertex -39.5 -2.5 2.00001
      vertex -38.3678 -2.5 2.19807
    endloop
  endfacet
  facet normal 0 -1 0
    outer loop
      vertex -39.5 -2.5 2.00001
      vertex -39.4498 -2.5 3.55496
      vertex -39.5 -2.5 4
    endloop
  endfacet
  facet normal 0 -1 0
    outer loop
      vertex -37.5 -2.5 2
      vertex -38.3678 -2.5 2.19807
      vertex -39.5 -2.5 2.00001
    endloop
  endfacet
  facet normal 0 -1 0
    outer loop
      vertex -38.3678 -2.5 2.19807
      vertex -37.5 -2.5 2
      vertex -37.5 -2.5 2.19807
    endloop
  endfacet
  facet normal 0.974928 4.24428e-08 -0.222523
    outer loop
      vertex -39.3483 -2.5 4
      vertex -39.4498 2.5 3.55496
      vertex -39.3483 2.5 4
    endloop
  endfacet
  facet normal 0.974928 4.24428e-08 -0.222523
    outer loop
      vertex -39.4498 2.5 3.55496
      vertex -39.3483 -2.5 4
      vertex -39.4498 -2.5 3.55496
    endloop
  endfacet
  facet normal 0.781833 -1.18921e-07 0.623488
    outer loop
      vertex -39.4498 -2.5 3.55496
      vertex -38.3678 2.5 2.19807
      vertex -39.4498 2.5 3.55496
    endloop
  endfacet
  facet normal 0.781833 -1.18921e-07 0.623488
    outer loop
      vertex -38.3678 2.5 2.19807
      vertex -39.4498 -2.5 3.55496
      vertex -38.3678 -2.5 2.19807
    endloop
  endfacet
  facet normal -1.099e-06 -1.90735e-07 1
    outer loop
      vertex -37.5 -2.5 2.19807
      vertex -38.3678 2.5 2.19807
      vertex -38.3678 -2.5 2.19807
    endloop
  endfacet
  facet normal 0 -0 1
    outer loop
      vertex -37.5 -2.5 2.19807
      vertex -37.5 2.5 2.19807
      vertex -38.3678 2.5 2.19807
    endloop
  endfacet
  facet normal 1 -0 0
    outer loop
      vertex -37.5 -2.5 2.19807
      vertex -37.5 2.5 2
      vertex -37.5 2.5 2.19807
    endloop
  endfacet
  facet normal 1 0 0
    outer loop
      vertex -37.5 2.5 2
      vertex -37.5 -2.5 2.19807
      vertex -37.5 -2.5 2
    endloop
  endfacet
  facet normal -7.15256e-06 -0 -1
    outer loop
      vertex -37.5 2.5 2
      vertex -37.5 -2.5 2
      vertex -39.5 -2.5 2.00001
    endloop
  endfacet
  facet normal -7.62939e-06 1.90735e-07 -1
    outer loop
      vertex -39.5 2.5 2.00002
      vertex -37.5 2.5 2
      vertex -39.5 -2.5 2.00001
    endloop
  endfacet
  facet normal 0 -1.90735e-07 1
    outer loop
      vertex -39.5 2.5 4
      vertex -39.3483 -2.5 4
      vertex -39.3483 2.5 4
    endloop
  endfacet
  facet normal 0 -1.90735e-07 1
    outer loop
      vertex -39.3483 -2.5 4
      vertex -39.5 2.5 4
      vertex -39.5 -2.5 4
    endloop
  endfacet
  facet normal 0.669362 0.724309 0.165318
    outer loop
      vertex 43.3478 0.746177 18.8297
      vertex 42.2654 1.80143 18.5888
      vertex 43.3478 0.598388 19.4772
    endloop
  endfacet
  facet normal 0.669362 -0.72431 0.16532
    outer loop
      vertex 43.3478 -0.598388 19.4772
      vertex 42.2654 -1.44464 20.1521
      vertex 42.2654 -1.80143 18.5888
    endloop
  endfacet
  facet normal 0.669361 -0.580851 -0.463214
    outer loop
      vertex 43.3478 -0.746177 18.8297
      vertex 42.2654 -1.80143 18.5888
      vertex 43.3478 -0.33208 18.3104
    endloop
  endfacet
  facet normal 0.669361 -0.322348 0.669363
    outer loop
      vertex 43.3478 4.71214e-16 19.7654
      vertex 42.2654 -1.44464 20.1521
      vertex 43.3478 -0.598388 19.4772
    endloop
  endfacet
  facet normal 0 0.974928 0.222522
    outer loop
      vertex 42.2654 1.80143 18.5888
      vertex 41.5 1.44464 20.1521
      vertex 42.2654 1.44464 20.1521
    endloop
  endfacet
  facet normal 0 0.974928 0.222522
    outer loop
      vertex 41.5 1.44464 20.1521
      vertex 42.2654 1.80143 18.5888
      vertex 41.5 1.80143 18.5888
    endloop
  endfacet
  facet normal 0.669362 -0.322349 0.669362
    outer loop
      vertex 43.3478 4.71214e-16 19.7654
      vertex 42.2654 3.3866e-16 20.8478
      vertex 42.2654 -1.44464 20.1521
    endloop
  endfacet
  facet normal 0 -0.781831 -0.62349
    outer loop
      vertex 41.5 -0.801712 17.3352
      vertex 42.2654 -1.80143 18.5888
      vertex 41.5 -1.80143 18.5888
    endloop
  endfacet
  facet normal 0 -0.781831 -0.62349
    outer loop
      vertex 42.2654 -1.80143 18.5888
      vertex 41.5 -0.801712 17.3352
      vertex 42.2654 -0.801712 17.3352
    endloop
  endfacet
  facet normal 0.669362 0.580851 -0.463214
    outer loop
      vertex 42.2654 0.801712 17.3352
      vertex 42.2654 1.80143 18.5888
      vertex 43.3478 0.33208 18.3104
    endloop
  endfacet
  facet normal 0.669362 0.322349 0.669362
    outer loop
      vertex 43.3478 4.71214e-16 19.7654
      vertex 42.2654 1.44464 20.1521
      vertex 42.2654 3.3866e-16 20.8478
    endloop
  endfacet
  facet normal 0.669362 -0.724309 0.165318
    outer loop
      vertex 43.3478 -0.598388 19.4772
      vertex 42.2654 -1.80143 18.5888
      vertex 43.3478 -0.746177 18.8297
    endloop
  endfacet
  facet normal 0.669362 0.72431 0.16532
    outer loop
      vertex 42.2654 1.80143 18.5888
      vertex 42.2654 1.44464 20.1521
      vertex 43.3478 0.598388 19.4772
    endloop
  endfacet
  facet normal 0.669361 0.322348 0.669363
    outer loop
      vertex 43.3478 0.598388 19.4772
      vertex 42.2654 1.44464 20.1521
      vertex 43.3478 4.71214e-16 19.7654
    endloop
  endfacet
  facet normal -0 0.433885 0.900968
    outer loop
      vertex 41.5 1.44464 20.1521
      vertex 42.2654 3.3866e-16 20.8478
      vertex 42.2654 1.44464 20.1521
    endloop
  endfacet
  facet normal -5.31356e-17 0.433885 0.900968
    outer loop
      vertex 42.2654 3.3866e-16 20.8478
      vertex 41.5 1.44464 20.1521
      vertex 41.5 2.44929e-16 20.8478
    endloop
  endfacet
  facet normal 0 -0.974928 0.222522
    outer loop
      vertex 41.5 -1.80143 18.5888
      vertex 42.2654 -1.44464 20.1521
      vertex 41.5 -1.44464 20.1521
    endloop
  endfacet
  facet normal 0 -0.974928 0.222522
    outer loop
      vertex 42.2654 -1.44464 20.1521
      vertex 41.5 -1.80143 18.5888
      vertex 42.2654 -1.80143 18.5888
    endloop
  endfacet
  facet normal 0.669361 0 -0.742937
    outer loop
      vertex 42.2654 -0.801712 17.3352
      vertex 43.3478 0.33208 18.3104
      vertex 43.3478 -0.33208 18.3104
    endloop
  endfacet
  facet normal 0.669361 0 -0.742937
    outer loop
      vertex 43.3478 0.33208 18.3104
      vertex 42.2654 -0.801712 17.3352
      vertex 42.2654 0.801712 17.3352
    endloop
  endfacet
  facet normal 0.669362 -0.580851 -0.463214
    outer loop
      vertex 43.3478 -0.33208 18.3104
      vertex 42.2654 -1.80143 18.5888
      vertex 42.2654 -0.801712 17.3352
    endloop
  endfacet
  facet normal 0 0 -1
    outer loop
      vertex 41.5 -0.801712 17.3352
      vertex 42.2654 0.801712 17.3352
      vertex 42.2654 -0.801712 17.3352
    endloop
  endfacet
  facet normal -0 0 -1
    outer loop
      vertex 42.2654 0.801712 17.3352
      vertex 41.5 -0.801712 17.3352
      vertex 41.5 0.801712 17.3352
    endloop
  endfacet
  facet normal 0.669361 0.580851 -0.463214
    outer loop
      vertex 43.3478 0.33208 18.3104
      vertex 42.2654 1.80143 18.5888
      vertex 43.3478 0.746177 18.8297
    endloop
  endfacet
  facet normal 5.31356e-17 -0.433885 0.900968
    outer loop
      vertex 41.5 2.44929e-16 20.8478
      vertex 42.2654 -1.44464 20.1521
      vertex 42.2654 3.3866e-16 20.8478
    endloop
  endfacet
  facet normal 0 -0.433885 0.900968
    outer loop
      vertex 42.2654 -1.44464 20.1521
      vertex 41.5 2.44929e-16 20.8478
      vertex 41.5 -1.44464 20.1521
    endloop
  endfacet
  facet normal 1 0 0
    outer loop
      vertex 43.3478 0.598388 19.4772
      vertex 43.3478 0.33208 18.3104
      vertex 43.3478 0.746177 18.8297
    endloop
  endfacet
  facet normal 1 0 0
    outer loop
      vertex 43.3478 4.71214e-16 19.7654
      vertex 43.3478 0.33208 18.3104
      vertex 43.3478 0.598388 19.4772
    endloop
  endfacet
  facet normal 1 0 0
    outer loop
      vertex 43.3478 4.71214e-16 19.7654
      vertex 43.3478 -0.33208 18.3104
      vertex 43.3478 0.33208 18.3104
    endloop
  endfacet
  facet normal 1 -0 0
    outer loop
      vertex 43.3478 -0.598388 19.4772
      vertex 43.3478 -0.33208 18.3104
      vertex 43.3478 4.71214e-16 19.7654
    endloop
  endfacet
  facet normal 1 0 0
    outer loop
      vertex 43.3478 -0.33208 18.3104
      vertex 43.3478 -0.598388 19.4772
      vertex 43.3478 -0.746177 18.8297
    endloop
  endfacet
  facet normal 0 0.781831 -0.62349
    outer loop
      vertex 42.2654 0.801712 17.3352
      vertex 41.5 1.80143 18.5888
      vertex 42.2654 1.80143 18.5888
    endloop
  endfacet
  facet normal 0 0.781831 -0.62349
    outer loop
      vertex 41.5 1.80143 18.5888
      vertex 42.2654 0.801712 17.3352
      vertex 41.5 0.801712 17.3352
    endloop
  endfacet
  facet normal 1 0 0
    outer loop
      vertex 41.5 2.5 21
      vertex 41.5 1.80143 18.5888
      vertex 41.5 2.5 2
    endloop
  endfacet
  facet normal 1 0 0
    outer loop
      vertex 41.5 2.5 21
      vertex 41.5 1.44464 20.1521
      vertex 41.5 1.80143 18.5888
    endloop
  endfacet
  facet normal 1 0 0
    outer loop
      vertex 41.5 2.5 21
      vertex 41.5 2.44929e-16 20.8478
      vertex 41.5 1.44464 20.1521
    endloop
  endfacet
  facet normal 1 0 0
    outer loop
      vertex 41.5 -1.44464 20.1521
      vertex 41.5 -2.5 21
      vertex 41.5 -1.80143 18.5888
    endloop
  endfacet
  facet normal 1 0 0
    outer loop
      vertex 41.5 2.44929e-16 20.8478
      vertex 41.5 -2.5 21
      vertex 41.5 -1.44464 20.1521
    endloop
  endfacet
  facet normal 1 -0 0
    outer loop
      vertex 41.5 -2.5 21
      vertex 41.5 2.44929e-16 20.8478
      vertex 41.5 2.5 21
    endloop
  endfacet
  facet normal 1 -0 0
    outer loop
      vertex 41.5 0.801712 17.3352
      vertex 41.5 2.5 2
      vertex 41.5 1.80143 18.5888
    endloop
  endfacet
  facet normal 1 -0 0
    outer loop
      vertex 41.5 -0.801712 17.3352
      vertex 41.5 2.5 2
      vertex 41.5 0.801712 17.3352
    endloop
  endfacet
  facet normal 1 0 0
    outer loop
      vertex 41.5 -2.5 2
      vertex 41.5 -0.801712 17.3352
      vertex 41.5 -1.80143 18.5888
    endloop
  endfacet
  facet normal 1 0 0
    outer loop
      vertex 41.5 -2.5 2
      vertex 41.5 -1.80143 18.5888
      vertex 41.5 -2.5 21
    endloop
  endfacet
  facet normal 1 0 0
    outer loop
      vertex 41.5 -0.801712 17.3352
      vertex 41.5 -2.5 2
      vertex 41.5 2.5 2
    endloop
  endfacet
  facet normal 0 0 -1
    outer loop
      vertex 39.5 -2.5 2
      vertex 41.5 2.5 2
      vertex 41.5 -2.5 2
    endloop
  endfacet
  facet normal -0 0 -1
    outer loop
      vertex 41.5 2.5 2
      vertex 39.5 -2.5 2
      vertex 39.5 2.5 2
    endloop
  endfacet
  facet normal -0 0 1
    outer loop
      vertex 39.5 2.5 21
      vertex 41.5 -2.5 21
      vertex 41.5 2.5 21
    endloop
  endfacet
  facet normal 0 0 1
    outer loop
      vertex 41.5 -2.5 21
      vertex 39.5 2.5 21
      vertex 39.5 -2.5 21
    endloop
  endfacet
  facet normal -1 0 0
    outer loop
      vertex 39.5 2.5 4
      vertex 39.5 2.5 2
      vertex 39.5 2.5 2.00001
    endloop
  endfacet
  facet normal -1 0 0
    outer loop
      vertex 39.5 -2.5 2
      vertex 39.5 2.5 2.00001
      vertex 39.5 2.5 2
    endloop
  endfacet
  facet normal -1 -0 0
    outer loop
      vertex 39.5 2.5 2.00001
      vertex 39.5 -2.5 2
      vertex 39.5 -2.5 2.00002
    endloop
  endfacet
  facet normal -1 0 0
    outer loop
      vertex 39.5 2.5 2
      vertex 39.5 2.5 4
      vertex 39.5 2.5 21
    endloop
  endfacet
  facet normal -1 0 0
    outer loop
      vertex 39.5 -2.5 4
      vertex 39.5 2.5 21
      vertex 39.5 2.5 4
    endloop
  endfacet
  facet normal -1 -0 0
    outer loop
      vertex 39.5 2.5 21
      vertex 39.5 -2.5 4
      vertex 39.5 -2.5 21
    endloop
  endfacet
  facet normal 0 1 -0
    outer loop
      vertex 41.5 2.5 2
      vertex 39.5 2.5 21
      vertex 41.5 2.5 21
    endloop
  endfacet
  facet normal 0 1 0
    outer loop
      vertex 39.5 2.5 21
      vertex 41.5 2.5 2
      vertex 39.5 2.5 2
    endloop
  endfacet
  facet normal 0 -1 0
    outer loop
      vertex 39.3483 -2.5 4
      vertex 39.4498 -2.5 3.55496
      vertex 39.5 -2.5 4
    endloop
  endfacet
  facet normal 0 -1 0
    outer loop
      vertex 39.5 -2.5 4
      vertex 41.5 -2.5 21
      vertex 39.5 -2.5 21
    endloop
  endfacet
  facet normal 0 -1 0
    outer loop
      vertex 41.5 -2.5 2
      vertex 39.5 -2.5 4
      vertex 39.4498 -2.5 3.55496
    endloop
  endfacet
  facet normal 0 -1 0
    outer loop
      vertex 39.5 -2.5 2.00002
      vertex 39.4498 -2.5 3.55496
      vertex 38.3678 -2.5 2.19807
    endloop
  endfacet
  facet normal 0 -1 0
    outer loop
      vertex 41.5 -2.5 2
      vertex 39.4498 -2.5 3.55496
      vertex 39.5 -2.5 2.00002
    endloop
  endfacet
  facet normal 0 -1 0
    outer loop
      vertex 41.5 -2.5 2
      vertex 39.5 -2.5 2.00002
      vertex 39.5 -2.5 2
    endloop
  endfacet
  facet normal 0 -1 0
    outer loop
      vertex 39.5 -2.5 4
      vertex 41.5 -2.5 2
      vertex 41.5 -2.5 21
    endloop
  endfacet
  facet normal 0 -1 0
    outer loop
      vertex 37.5 -2.5 2
      vertex 38.3678 -2.5 2.19807
      vertex 37.5 -2.5 2.19807
    endloop
  endfacet
  facet normal 0 -1 -0
    outer loop
      vertex 38.3678 -2.5 2.19807
      vertex 37.5 -2.5 2
      vertex 39.5 -2.5 2.00002
    endloop
  endfacet
  facet normal 0 1 0
    outer loop
      vertex 37.5 2.5 2
      vertex 38.3678 2.5 2.19807
      vertex 39.5 2.5 2.00001
    endloop
  endfacet
  facet normal 0 1 0
    outer loop
      vertex 38.3678 2.5 2.19807
      vertex 37.5 2.5 2
      vertex 37.5 2.5 2.19807
    endloop
  endfacet
  facet normal 0 1 0
    outer loop
      vertex 39.5 2.5 4
      vertex 39.4498 2.5 3.55496
      vertex 39.3483 2.5 4
    endloop
  endfacet
  facet normal 0 1 0
    outer loop
      vertex 39.4498 2.5 3.55496
      vertex 39.5 2.5 2.00001
      vertex 38.3678 2.5 2.19807
    endloop
  endfacet
  facet normal 0 1 -0
    outer loop
      vertex 39.5 2.5 2.00001
      vertex 39.4498 2.5 3.55496
      vertex 39.5 2.5 4
    endloop
  endfacet
  facet normal -0.974928 -4.24428e-08 -0.222523
    outer loop
      vertex 39.4498 -2.5 3.55496
      vertex 39.3483 2.5 4
      vertex 39.4498 2.5 3.55496
    endloop
  endfacet
  facet normal -0.974928 -4.24428e-08 -0.222523
    outer loop
      vertex 39.3483 2.5 4
      vertex 39.4498 -2.5 3.55496
      vertex 39.3483 -2.5 4
    endloop
  endfacet
  facet normal -0.781833 1.18921e-07 0.623488
    outer loop
      vertex 38.3678 -2.5 2.19807
      vertex 39.4498 2.5 3.55496
      vertex 38.3678 2.5 2.19807
    endloop
  endfacet
  facet normal -0.781833 1.18921e-07 0.623488
    outer loop
      vertex 39.4498 2.5 3.55496
      vertex 38.3678 -2.5 2.19807
      vertex 39.4498 -2.5 3.55496
    endloop
  endfacet
  facet normal 1.099e-06 1.90735e-07 1
    outer loop
      vertex 38.3678 -2.5 2.19807
      vertex 38.3678 2.5 2.19807
      vertex 37.5 2.5 2.19807
    endloop
  endfacet
  facet normal 0 0 1
    outer loop
      vertex 37.5 -2.5 2.19807
      vertex 38.3678 -2.5 2.19807
      vertex 37.5 2.5 2.19807
    endloop
  endfacet
  facet normal -1 0 0
    outer loop
      vertex 37.5 -2.5 2
      vertex 37.5 2.5 2.19807
      vertex 37.5 2.5 2
    endloop
  endfacet
  facet normal -1 -0 0
    outer loop
      vertex 37.5 2.5 2.19807
      vertex 37.5 -2.5 2
      vertex 37.5 -2.5 2.19807
    endloop
  endfacet
  facet normal 7.15256e-06 0 -1
    outer loop
      vertex 39.5 2.5 2.00001
      vertex 37.5 -2.5 2
      vertex 37.5 2.5 2
    endloop
  endfacet
  facet normal 7.62939e-06 -1.90735e-07 -1
    outer loop
      vertex 37.5 -2.5 2
      vertex 39.5 2.5 2.00001
      vertex 39.5 -2.5 2.00002
    endloop
  endfacet
  facet normal -0 1.90735e-07 1
    outer loop
      vertex 39.3483 2.5 4
      vertex 39.5 -2.5 4
      vertex 39.5 2.5 4
    endloop
  endfacet
  facet normal 0 1.90735e-07 1
    outer loop
      vertex 39.5 -2.5 4
      vertex 39.3483 2.5 4
      vertex 39.3483 -2.5 4
    endloop
  endfacet
  facet normal 0.994522 0.104528 0
    outer loop
      vertex 42.5 0 0
      vertex 41.5713 8.83625 -2
      vertex 41.5713 8.83625 0
    endloop
  endfacet
  facet normal 0.994522 0.104528 0
    outer loop
      vertex 41.5713 8.83625 -2
      vertex 42.5 0 0
      vertex 42.5 0 -2
    endloop
  endfacet
  facet normal -0.994522 0.104528 0
    outer loop
      vertex -42.5 0 -2
      vertex -41.5713 8.83625 0
      vertex -41.5713 8.83625 -2
    endloop
  endfacet
  facet normal -0.994522 0.104528 0
    outer loop
      vertex -41.5713 8.83625 0
      vertex -42.5 0 -2
      vertex -42.5 0 0
    endloop
  endfacet
  facet normal 0 1 -0
    outer loop
      vertex 4.44246 42.2672 -2
      vertex -4.44246 42.2672 0
      vertex 4.44246 42.2672 0
    endloop
  endfacet
  facet normal 0 1 0
    outer loop
      vertex -4.44246 42.2672 0
      vertex 4.44246 42.2672 -2
      vertex -4.44246 42.2672 -2
    endloop
  endfacet
  facet normal 0.587785 0.809017 -0
    outer loop
      vertex 28.438 31.5837 -2
      vertex 21.25 36.8061 0
      vertex 28.438 31.5837 0
    endloop
  endfacet
  facet normal 0.587785 0.809017 0
    outer loop
      vertex 21.25 36.8061 0
      vertex 28.438 31.5837 -2
      vertex 21.25 36.8061 -2
    endloop
  endfacet
  facet normal 0.406737 0.913545 -0
    outer loop
      vertex 21.25 36.8061 -2
      vertex 13.1332 40.4199 0
      vertex 21.25 36.8061 0
    endloop
  endfacet
  facet normal 0.406737 0.913545 0
    outer loop
      vertex 13.1332 40.4199 0
      vertex 21.25 36.8061 -2
      vertex 13.1332 40.4199 -2
    endloop
  endfacet
  facet normal -0.743145 0.669131 0
    outer loop
      vertex -34.3832 24.9809 -2
      vertex -28.438 31.5837 0
      vertex -28.438 31.5837 -2
    endloop
  endfacet
  facet normal -0.743145 0.669131 0
    outer loop
      vertex -28.438 31.5837 0
      vertex -34.3832 24.9809 -2
      vertex -34.3832 24.9809 0
    endloop
  endfacet
  facet normal -0.406737 0.913545 0
    outer loop
      vertex -13.1332 40.4199 -2
      vertex -21.25 36.8061 0
      vertex -13.1332 40.4199 0
    endloop
  endfacet
  facet normal -0.406737 0.913545 0
    outer loop
      vertex -21.25 36.8061 0
      vertex -13.1332 40.4199 -2
      vertex -21.25 36.8061 -2
    endloop
  endfacet
  facet normal 0.866025 0.5 0
    outer loop
      vertex 38.8257 17.2863 0
      vertex 34.3832 24.9809 -2
      vertex 34.3832 24.9809 0
    endloop
  endfacet
  facet normal 0.866025 0.5 0
    outer loop
      vertex 34.3832 24.9809 -2
      vertex 38.8257 17.2863 0
      vertex 38.8257 17.2863 -2
    endloop
  endfacet
  facet normal 0.951057 0.309017 0
    outer loop
      vertex 41.5713 8.83625 0
      vertex 38.8257 17.2863 -2
      vertex 38.8257 17.2863 0
    endloop
  endfacet
  facet normal 0.951057 0.309017 0
    outer loop
      vertex 38.8257 17.2863 -2
      vertex 41.5713 8.83625 0
      vertex 41.5713 8.83625 -2
    endloop
  endfacet
  facet normal 0.743145 0.669131 0
    outer loop
      vertex 34.3832 24.9809 0
      vertex 28.438 31.5837 -2
      vertex 28.438 31.5837 0
    endloop
  endfacet
  facet normal 0.743145 0.669131 0
    outer loop
      vertex 28.438 31.5837 -2
      vertex 34.3832 24.9809 0
      vertex 34.3832 24.9809 -2
    endloop
  endfacet
  facet normal 0.207912 0.978148 -0
    outer loop
      vertex 13.1332 40.4199 -2
      vertex 4.44246 42.2672 0
      vertex 13.1332 40.4199 0
    endloop
  endfacet
  facet normal 0.207912 0.978148 0
    outer loop
      vertex 4.44246 42.2672 0
      vertex 13.1332 40.4199 -2
      vertex 4.44246 42.2672 -2
    endloop
  endfacet
  facet normal -0.866025 0.5 0
    outer loop
      vertex -38.8257 17.2863 -2
      vertex -34.3832 24.9809 0
      vertex -34.3832 24.9809 -2
    endloop
  endfacet
  facet normal -0.866025 0.5 0
    outer loop
      vertex -34.3832 24.9809 0
      vertex -38.8257 17.2863 -2
      vertex -38.8257 17.2863 0
    endloop
  endfacet
  facet normal -0.951057 0.309017 0
    outer loop
      vertex -41.5713 8.83625 -2
      vertex -38.8257 17.2863 0
      vertex -38.8257 17.2863 -2
    endloop
  endfacet
  facet normal -0.951057 0.309017 0
    outer loop
      vertex -38.8257 17.2863 0
      vertex -41.5713 8.83625 -2
      vertex -41.5713 8.83625 0
    endloop
  endfacet
  facet normal -0.587785 0.809017 0
    outer loop
      vertex -21.25 36.8061 -2
      vertex -28.438 31.5837 0
      vertex -21.25 36.8061 0
    endloop
  endfacet
  facet normal -0.587785 0.809017 0
    outer loop
      vertex -28.438 31.5837 0
      vertex -21.25 36.8061 -2
      vertex -28.438 31.5837 -2
    endloop
  endfacet
  facet normal -0.207912 0.978148 0
    outer loop
      vertex -4.44246 42.2672 -2
      vertex -13.1332 40.4199 0
      vertex -4.44246 42.2672 0
    endloop
  endfacet
  facet normal -0.207912 0.978148 0
    outer loop
      vertex -13.1332 40.4199 0
      vertex -4.44246 42.2672 -2
      vertex -13.1332 40.4199 -2
    endloop
  endfacet
  facet normal 0.994522 -0.104528 0
    outer loop
      vertex 41.5713 -8.83625 0
      vertex 42.5 0 -2
      vertex 42.5 0 0
    endloop
  endfacet
  facet normal 0.994522 -0.104528 0
    outer loop
      vertex 42.5 0 -2
      vertex 41.5713 -8.83625 0
      vertex 41.5713 -8.83625 -2
    endloop
  endfacet
  facet normal -0.207912 -0.978148 0
    outer loop
      vertex -13.1332 -40.4199 -2
      vertex -4.44246 -42.2672 0
      vertex -13.1332 -40.4199 0
    endloop
  endfacet
  facet normal -0.207912 -0.978148 -0
    outer loop
      vertex -4.44246 -42.2672 0
      vertex -13.1332 -40.4199 -2
      vertex -4.44246 -42.2672 -2
    endloop
  endfacet
  facet normal -0.994522 -0.104528 0
    outer loop
      vertex -41.5713 -8.83625 -2
      vertex -42.5 0 0
      vertex -42.5 0 -2
    endloop
  endfacet
  facet normal -0.994522 -0.104528 0
    outer loop
      vertex -42.5 0 0
      vertex -41.5713 -8.83625 -2
      vertex -41.5713 -8.83625 0
    endloop
  endfacet
  facet normal 0.207912 -0.978148 0
    outer loop
      vertex 4.44246 -42.2672 -2
      vertex 13.1332 -40.4199 0
      vertex 4.44246 -42.2672 0
    endloop
  endfacet
  facet normal 0.207912 -0.978148 0
    outer loop
      vertex 13.1332 -40.4199 0
      vertex 4.44246 -42.2672 -2
      vertex 13.1332 -40.4199 -2
    endloop
  endfacet
  facet normal 0.743145 -0.669131 0
    outer loop
      vertex 28.438 -31.5837 0
      vertex 34.3832 -24.9809 -2
      vertex 34.3832 -24.9809 0
    endloop
  endfacet
  facet normal 0.743145 -0.669131 0
    outer loop
      vertex 34.3832 -24.9809 -2
      vertex 28.438 -31.5837 0
      vertex 28.438 -31.5837 -2
    endloop
  endfacet
  facet normal 0.951057 -0.309017 0
    outer loop
      vertex 38.8257 -17.2863 0
      vertex 41.5713 -8.83625 -2
      vertex 41.5713 -8.83625 0
    endloop
  endfacet
  facet normal 0.951057 -0.309017 0
    outer loop
      vertex 41.5713 -8.83625 -2
      vertex 38.8257 -17.2863 0
      vertex 38.8257 -17.2863 -2
    endloop
  endfacet
  facet normal 0.866025 -0.5 0
    outer loop
      vertex 34.3832 -24.9809 0
      vertex 38.8257 -17.2863 -2
      vertex 38.8257 -17.2863 0
    endloop
  endfacet
  facet normal 0.866025 -0.5 0
    outer loop
      vertex 38.8257 -17.2863 -2
      vertex 34.3832 -24.9809 0
      vertex 34.3832 -24.9809 -2
    endloop
  endfacet
  facet normal -0.866025 -0.5 0
    outer loop
      vertex -34.3832 -24.9809 -2
      vertex -38.8257 -17.2863 0
      vertex -38.8257 -17.2863 -2
    endloop
  endfacet
  facet normal -0.866025 -0.5 0
    outer loop
      vertex -38.8257 -17.2863 0
      vertex -34.3832 -24.9809 -2
      vertex -34.3832 -24.9809 0
    endloop
  endfacet
  facet normal -0.951057 -0.309017 0
    outer loop
      vertex -38.8257 -17.2863 -2
      vertex -41.5713 -8.83625 0
      vertex -41.5713 -8.83625 -2
    endloop
  endfacet
  facet normal -0.951057 -0.309017 0
    outer loop
      vertex -41.5713 -8.83625 0
      vertex -38.8257 -17.2863 -2
      vertex -38.8257 -17.2863 0
    endloop
  endfacet
  facet normal 0.587785 -0.809017 0
    outer loop
      vertex 21.25 -36.8061 -2
      vertex 28.438 -31.5837 0
      vertex 21.25 -36.8061 0
    endloop
  endfacet
  facet normal 0.587785 -0.809017 0
    outer loop
      vertex 28.438 -31.5837 0
      vertex 21.25 -36.8061 -2
      vertex 28.438 -31.5837 -2
    endloop
  endfacet
  facet normal 0.406737 -0.913545 0
    outer loop
      vertex 13.1332 -40.4199 -2
      vertex 21.25 -36.8061 0
      vertex 13.1332 -40.4199 0
    endloop
  endfacet
  facet normal 0.406737 -0.913545 0
    outer loop
      vertex 21.25 -36.8061 0
      vertex 13.1332 -40.4199 -2
      vertex 21.25 -36.8061 -2
    endloop
  endfacet
  facet normal 0 -1 0
    outer loop
      vertex -4.44246 -42.2672 -2
      vertex 4.44246 -42.2672 0
      vertex -4.44246 -42.2672 0
    endloop
  endfacet
  facet normal 0 -1 -0
    outer loop
      vertex 4.44246 -42.2672 0
      vertex -4.44246 -42.2672 -2
      vertex 4.44246 -42.2672 -2
    endloop
  endfacet
  facet normal -0.406737 -0.913545 0
    outer loop
      vertex -21.25 -36.8061 -2
      vertex -13.1332 -40.4199 0
      vertex -21.25 -36.8061 0
    endloop
  endfacet
  facet normal -0.406737 -0.913545 -0
    outer loop
      vertex -13.1332 -40.4199 0
      vertex -21.25 -36.8061 -2
      vertex -13.1332 -40.4199 -2
    endloop
  endfacet
  facet normal -0.743145 -0.669131 0
    outer loop
      vertex -28.438 -31.5837 -2
      vertex -34.3832 -24.9809 0
      vertex -34.3832 -24.9809 -2
    endloop
  endfacet
  facet normal -0.743145 -0.669131 0
    outer loop
      vertex -34.3832 -24.9809 0
      vertex -28.438 -31.5837 -2
      vertex -28.438 -31.5837 0
    endloop
  endfacet
  facet normal 0 0 -1
    outer loop
      vertex 41.5713 -8.83625 -2
      vertex 41.5713 8.83625 -2
      vertex 42.5 0 -2
    endloop
  endfacet
  facet normal 0 0 -1
    outer loop
      vertex 38.8257 -17.2863 -2
      vertex 41.5713 8.83625 -2
      vertex 41.5713 -8.83625 -2
    endloop
  endfacet
  facet normal 0 0 -1
    outer loop
      vertex 38.8257 -17.2863 -2
      vertex 38.8257 17.2863 -2
      vertex 41.5713 8.83625 -2
    endloop
  endfacet
  facet normal 0 0 -1
    outer loop
      vertex 34.3832 -24.9809 -2
      vertex 38.8257 17.2863 -2
      vertex 38.8257 -17.2863 -2
    endloop
  endfacet
  facet normal 0 0 -1
    outer loop
      vertex 34.3832 -24.9809 -2
      vertex 34.3832 24.9809 -2
      vertex 38.8257 17.2863 -2
    endloop
  endfacet
  facet normal 0 0 -1
    outer loop
      vertex 28.438 -31.5837 -2
      vertex 34.3832 24.9809 -2
      vertex 34.3832 -24.9809 -2
    endloop
  endfacet
  facet normal 0 0 -1
    outer loop
      vertex 28.438 -31.5837 -2
      vertex 28.438 31.5837 -2
      vertex 34.3832 24.9809 -2
    endloop
  endfacet
  facet normal 0 0 -1
    outer loop
      vertex 21.25 -36.8061 -2
      vertex 28.438 31.5837 -2
      vertex 28.438 -31.5837 -2
    endloop
  endfacet
  facet normal 0 0 -1
    outer loop
      vertex 21.25 -36.8061 -2
      vertex 21.25 36.8061 -2
      vertex 28.438 31.5837 -2
    endloop
  endfacet
  facet normal 0 0 -1
    outer loop
      vertex 13.1332 -40.4199 -2
      vertex 21.25 36.8061 -2
      vertex 21.25 -36.8061 -2
    endloop
  endfacet
  facet normal 0 0 -1
    outer loop
      vertex 13.1332 -40.4199 -2
      vertex 13.1332 40.4199 -2
      vertex 21.25 36.8061 -2
    endloop
  endfacet
  facet normal 0 0 -1
    outer loop
      vertex 4.44246 -42.2672 -2
      vertex 13.1332 40.4199 -2
      vertex 13.1332 -40.4199 -2
    endloop
  endfacet
  facet normal 0 0 -1
    outer loop
      vertex 4.44246 -42.2672 -2
      vertex 4.44246 42.2672 -2
      vertex 13.1332 40.4199 -2
    endloop
  endfacet
  facet normal 0 0 -1
    outer loop
      vertex -4.44246 -42.2672 -2
      vertex 4.44246 42.2672 -2
      vertex 4.44246 -42.2672 -2
    endloop
  endfacet
  facet normal 0 0 -1
    outer loop
      vertex -4.44246 -42.2672 -2
      vertex -4.44246 42.2672 -2
      vertex 4.44246 42.2672 -2
    endloop
  endfacet
  facet normal 0 0 -1
    outer loop
      vertex -13.1332 -40.4199 -2
      vertex -4.44246 42.2672 -2
      vertex -4.44246 -42.2672 -2
    endloop
  endfacet
  facet normal 0 0 -1
    outer loop
      vertex -13.1332 -40.4199 -2
      vertex -13.1332 40.4199 -2
      vertex -4.44246 42.2672 -2
    endloop
  endfacet
  facet normal 0 0 -1
    outer loop
      vertex -21.25 -36.8061 -2
      vertex -13.1332 40.4199 -2
      vertex -13.1332 -40.4199 -2
    endloop
  endfacet
  facet normal 0 0 -1
    outer loop
      vertex -21.25 -36.8061 -2
      vertex -21.25 36.8061 -2
      vertex -13.1332 40.4199 -2
    endloop
  endfacet
  facet normal 0 0 -1
    outer loop
      vertex -28.438 -31.5837 -2
      vertex -21.25 36.8061 -2
      vertex -21.25 -36.8061 -2
    endloop
  endfacet
  facet normal 0 0 -1
    outer loop
      vertex -28.438 -31.5837 -2
      vertex -28.438 31.5837 -2
      vertex -21.25 36.8061 -2
    endloop
  endfacet
  facet normal 0 0 -1
    outer loop
      vertex -34.3832 -24.9809 -2
      vertex -28.438 31.5837 -2
      vertex -28.438 -31.5837 -2
    endloop
  endfacet
  facet normal 0 0 -1
    outer loop
      vertex -34.3832 -24.9809 -2
      vertex -34.3832 24.9809 -2
      vertex -28.438 31.5837 -2
    endloop
  endfacet
  facet normal 0 0 -1
    outer loop
      vertex -38.8257 -17.2863 -2
      vertex -34.3832 24.9809 -2
      vertex -34.3832 -24.9809 -2
    endloop
  endfacet
  facet normal 0 0 -1
    outer loop
      vertex -38.8257 -17.2863 -2
      vertex -38.8257 17.2863 -2
      vertex -34.3832 24.9809 -2
    endloop
  endfacet
  facet normal 0 0 -1
    outer loop
      vertex -41.5713 -8.83625 -2
      vertex -38.8257 17.2863 -2
      vertex -38.8257 -17.2863 -2
    endloop
  endfacet
  facet normal 0 0 -1
    outer loop
      vertex -41.5713 -8.83625 -2
      vertex -41.5713 8.83625 -2
      vertex -38.8257 17.2863 -2
    endloop
  endfacet
  facet normal 0 -0 -1
    outer loop
      vertex -41.5713 8.83625 -2
      vertex -41.5713 -8.83625 -2
      vertex -42.5 0 -2
    endloop
  endfacet
  facet normal -0.587785 -0.809017 0
    outer loop
      vertex -28.438 -31.5837 -2
      vertex -21.25 -36.8061 0
      vertex -28.438 -31.5837 0
    endloop
  endfacet
  facet normal -0.587785 -0.809017 -0
    outer loop
      vertex -21.25 -36.8061 0
      vertex -28.438 -31.5837 -2
      vertex -21.25 -36.8061 -2
    endloop
  endfacet
endsolid OpenSCAD_Model
